# xmcd
#
# Track frame offsets:
#	150
#	18997
#	42077
#	61215
#	78107
#	93842
#	109779
#	136497
#	152347
#	170950
#	193350
#	212215
#
# Disc length: 3062 seconds
#
# Revision: 3
# Processed by: cddbd v1.4PL0 Copyright (c) Steve Scherf et al.
# Submitted via: EasyCDDAExtractor 5.0.7
#
DISCID=9c0bf40c
DTITLE=Jonny Lang - Lie to Me
DYEAR=1997
DGENRE=Country
TTITLE0=Lie to Me
TTITLE1=Darker Side
TTITLE2=Good Morning Little School Girl
TTITLE3=Still Wonder
TTITLE4=Matchbox
TTITLE5=Back for a Taste of Your Love
TTITLE6=A Quitter Never Wins
TTITLE7=Hit The Ground Running
TTITLE8=Rack'em Up
TTITLE9=When I Come to You
TTITLE10=There's Gotta Be a Change
TTITLE11=Missing Your Love
EXTD=
EXTT0=
EXTT1=
EXTT2=
EXTT3=
EXTT4=
EXTT5=
EXTT6=
EXTT7=
EXTT8=
EXTT9=
EXTT10=
EXTT11=
PLAYORDER=
